<svg xmlns="http://www.w3.org/2000/svg" width="1600" height="900" viewBox="0 0 1600 900">
<style>
  .h1 { font: 600 22px "Inter", "Segoe UI", Arial; fill: #0B1220; }
  .h2 { font: 600 16px "Inter", "Segoe UI", Arial; fill: #0B1220; }
  .body { font: 400 14px "Inter", "Segoe UI", Arial; fill: #0B1220; }
  .muted { font: 400 12px "Inter", "Segoe UI", Arial; fill: #556070; }
  .btn { font: 600 13px "Inter", "Segoe UI", Arial; fill: #fff; }
  .btn2 { font: 600 13px "Inter", "Segoe UI", Arial; fill: #0B1220; }
  .mono { font: 400 12px "Consolas","SFMono-Regular","Menlo",monospace; fill: #556070; }
  .chip { font: 600 12px "Inter", "Segoe UI", Arial; }
</style>
<rect x="0" y="0" width="1600" height="900" fill="#F5F7FA"/>
<text x="24" y="58" class="h1" text-anchor="start">WebLoadTester — Design System (Light)</text>
<text x="24" y="102" class="h2" text-anchor="start">Colors</text>
<rect x="24" y="114" width="160" height="72" rx="14" fill="#F5F7FA" stroke="#D9DEE7"/>
<text x="36" y="138" class="muted" text-anchor="start">PageBg</text>
<text x="36" y="164" class="mono" text-anchor="start">#F5F7FA</text>
<rect x="196" y="114" width="160" height="72" rx="14" fill="#FFFFFF" stroke="#D9DEE7"/>
<text x="208" y="138" class="muted" text-anchor="start">CardBg</text>
<text x="208" y="164" class="mono" text-anchor="start">#FFFFFF</text>
<rect x="368" y="114" width="160" height="72" rx="14" fill="#D9DEE7" stroke="#D9DEE7"/>
<text x="380" y="138" class="muted" text-anchor="start">Border</text>
<text x="380" y="164" class="mono" text-anchor="start">#D9DEE7</text>
<rect x="540" y="114" width="160" height="72" rx="14" fill="#0B1220" stroke="#D9DEE7"/>
<text x="552" y="138" class="body" text-anchor="start">Text</text>
<text x="552" y="164" class="mono" text-anchor="start">#0B1220</text>
<rect x="712" y="114" width="160" height="72" rx="14" fill="#556070" stroke="#D9DEE7"/>
<text x="724" y="138" class="body" text-anchor="start">Muted</text>
<text x="724" y="164" class="mono" text-anchor="start">#556070</text>
<rect x="24" y="198" width="160" height="72" rx="14" fill="#1F6FEB" stroke="#D9DEE7"/>
<text x="36" y="222" class="muted" text-anchor="start">Primary</text>
<text x="36" y="248" class="mono" text-anchor="start">#1F6FEB</text>
<rect x="196" y="198" width="160" height="72" rx="14" fill="#D73A49" stroke="#D9DEE7"/>
<text x="208" y="222" class="muted" text-anchor="start">Danger</text>
<text x="208" y="248" class="mono" text-anchor="start">#D73A49</text>
<rect x="368" y="198" width="160" height="72" rx="14" fill="#B58100" stroke="#D9DEE7"/>
<text x="380" y="222" class="muted" text-anchor="start">Warning</text>
<text x="380" y="248" class="mono" text-anchor="start">#B58100</text>
<rect x="540" y="198" width="160" height="72" rx="14" fill="#1A7F37" stroke="#D9DEE7"/>
<text x="552" y="222" class="muted" text-anchor="start">Success</text>
<text x="552" y="248" class="mono" text-anchor="start">#1A7F37</text>
<text x="24" y="330" class="h2" text-anchor="start">Typography</text>
<rect x="24" y="342" width="1552" height="170" rx="16" ry="16" fill="#FFFFFF" stroke="#D9DEE7" stroke-width="1" />
<text x="40" y="386" class="h1" text-anchor="start">H1 — 22/28 SemiBold</text>
<text x="40" y="422" class="h2" text-anchor="start">H2 — 16/22 SemiBold</text>
<text x="40" y="456" class="body" text-anchor="start">Body — 14/20 Regular. Muted — 12/16 Regular</text>
<text x="24" y="550" class="h2" text-anchor="start">Components</text>
<rect x="24" y="562" width="1552" height="250" rx="16" ry="16" fill="#FFFFFF" stroke="#D9DEE7" stroke-width="1" />
<rect x="40" y="592" width="120" height="34" rx="10" ry="10" fill="#1F6FEB" stroke="#1F6FEB" stroke-width="1"/>
<text x="100.0" y="613.0" class="btn" text-anchor="middle">Primary</text>
<rect x="172" y="592" width="130" height="34" rx="10" ry="10" fill="#FFFFFF" stroke="#D9DEE7" stroke-width="1"/>
<text x="237.0" y="613.0" class="btn2" text-anchor="middle">Secondary</text>
<rect x="316" y="592" width="110" height="34" rx="10" ry="10" fill="#F5F7FA" stroke="#D9DEE7" stroke-width="1"/>
<text x="371.0" y="613.0" class="btn2" text-anchor="middle">Ghost</text>
<rect x="438" y="592" width="110" height="34" rx="10" ry="10" fill="#D73A49" stroke="#D73A49" stroke-width="1"/>
<text x="493.0" y="613.0" class="btn" text-anchor="middle">Danger</text>
<text x="40" y="668" class="muted" text-anchor="start">Chips / Badges</text>
<rect x="40" y="678" width="92" height="26" rx="13.0" ry="13.0" fill="#E7F6EC" stroke="#1A7F37" stroke-width="1"/>
<text x="86.0" y="695.0" class="chip" text-anchor="middle" fill="#1A7F37">OK</text>
<rect x="144" y="678" width="92" height="26" rx="13.0" ry="13.0" fill="#FFF6D8" stroke="#B58100" stroke-width="1"/>
<text x="190.0" y="695.0" class="chip" text-anchor="middle" fill="#B58100">WARN</text>
<rect x="248" y="678" width="92" height="26" rx="13.0" ry="13.0" fill="#FDECEF" stroke="#D73A49" stroke-width="1"/>
<text x="294.0" y="695.0" class="chip" text-anchor="middle" fill="#D73A49">ERROR</text>
<text x="40" y="722" class="muted" text-anchor="start">FieldRow</text>
<rect x="40" y="732" width="720" height="62" rx="14" fill="#F5F7FA" stroke="#D9DEE7"/>
<text x="52" y="768" class="muted" text-anchor="start">Label</text>
<rect x="260" y="746" width="480" height="34" rx="10" ry="10" fill="#FFFFFF" stroke="#D9DEE7" stroke-width="1"/>
<text x="272" y="767.0" class="muted" text-anchor="start">Value / Selection</text>
<text x="800" y="644" class="muted" text-anchor="start">Segmented (10 modules)</text>
<rect x="800" y="652" width="46" height="28" rx="14.0" ry="14.0" fill="#FFFFFF" stroke="#D9DEE7" stroke-width="1"/>
<text x="823.0" y="670.0" class="chip" text-anchor="middle" fill="#556070">A1</text>
<rect x="854" y="652" width="46" height="28" rx="14.0" ry="14.0" fill="#FFFFFF" stroke="#D9DEE7" stroke-width="1"/>
<text x="877.0" y="670.0" class="chip" text-anchor="middle" fill="#556070">A2</text>
<rect x="908" y="652" width="46" height="28" rx="14.0" ry="14.0" fill="#FFFFFF" stroke="#D9DEE7" stroke-width="1"/>
<text x="931.0" y="670.0" class="chip" text-anchor="middle" fill="#556070">A3</text>
<rect x="962" y="652" width="46" height="28" rx="14.0" ry="14.0" fill="#FFFFFF" stroke="#D9DEE7" stroke-width="1"/>
<text x="985.0" y="670.0" class="chip" text-anchor="middle" fill="#556070">B1</text>
<rect x="1016" y="652" width="46" height="28" rx="14.0" ry="14.0" fill="#E8F0FF" stroke="#1F6FEB" stroke-width="1"/>
<text x="1039.0" y="670.0" class="chip" text-anchor="middle" fill="#1F6FEB">B2</text>
<rect x="1070" y="652" width="46" height="28" rx="14.0" ry="14.0" fill="#FFFFFF" stroke="#D9DEE7" stroke-width="1"/>
<text x="1093.0" y="670.0" class="chip" text-anchor="middle" fill="#556070">B3</text>
<rect x="1124" y="652" width="46" height="28" rx="14.0" ry="14.0" fill="#FFFFFF" stroke="#D9DEE7" stroke-width="1"/>
<text x="1147.0" y="670.0" class="chip" text-anchor="middle" fill="#556070">C1</text>
<rect x="1178" y="652" width="46" height="28" rx="14.0" ry="14.0" fill="#FFFFFF" stroke="#D9DEE7" stroke-width="1"/>
<text x="1201.0" y="670.0" class="chip" text-anchor="middle" fill="#556070">C2</text>
<rect x="1232" y="652" width="46" height="28" rx="14.0" ry="14.0" fill="#FFFFFF" stroke="#D9DEE7" stroke-width="1"/>
<text x="1255.0" y="670.0" class="chip" text-anchor="middle" fill="#556070">C3</text>
<rect x="1286" y="652" width="46" height="28" rx="14.0" ry="14.0" fill="#FFFFFF" stroke="#D9DEE7" stroke-width="1"/>
<text x="1309.0" y="670.0" class="chip" text-anchor="middle" fill="#556070">C4</text>
</svg>