<svg xmlns="http://www.w3.org/2000/svg" width="1920" height="1080" viewBox="0 0 1920 1080">
<style>
  .h1 { font: 600 22px "Inter", "Segoe UI", Arial; fill: #0B1220; }
  .h2 { font: 600 16px "Inter", "Segoe UI", Arial; fill: #0B1220; }
  .body { font: 400 14px "Inter", "Segoe UI", Arial; fill: #0B1220; }
  .muted { font: 400 12px "Inter", "Segoe UI", Arial; fill: #556070; }
  .btn { font: 600 13px "Inter", "Segoe UI", Arial; fill: #fff; }
  .btn2 { font: 600 13px "Inter", "Segoe UI", Arial; fill: #0B1220; }
  .mono { font: 400 12px "Consolas","SFMono-Regular","Menlo",monospace; fill: #556070; }
  .chip { font: 600 12px "Inter", "Segoe UI", Arial; }
</style>
<rect x="0" y="0" width="1920" height="1080" fill="#F5F7FA"/>
<rect x="24" y="24" width="1872" height="92" rx="16" ry="16" fill="#FFFFFF" stroke="#D9DEE7" stroke-width="1" />
<text x="44" y="58" class="h1" text-anchor="start">WebLoadTester</text>
<text x="44" y="82" class="muted" text-anchor="start">Вкладка «Прогоны»</text>
<rect x="1756" y="84" width="120" height="28" rx="14.0" ry="14.0" fill="#E7F6EC" stroke="#1A7F37" stroke-width="1"/>
<text x="1816.0" y="102.0" class="chip" text-anchor="middle" fill="#1A7F37">Telegram: OK</text>
<rect x="1626" y="84" width="120" height="28" rx="14.0" ry="14.0" fill="#E7F6EC" stroke="#1A7F37" stroke-width="1"/>
<text x="1686.0" y="102.0" class="chip" text-anchor="middle" fill="#1A7F37">DB: OK</text>
<rect x="1462" y="84" width="150" height="32" rx="10" ry="10" fill="#FFFFFF" stroke="#D9DEE7" stroke-width="1"/>
<text x="1537.0" y="104.0" class="btn2" text-anchor="middle">Папка прогонов</text>
<rect x="1332" y="84" width="120" height="32" rx="10" ry="10" fill="#FFFFFF" stroke="#D9DEE7" stroke-width="1"/>
<text x="1392.0" y="104.0" class="btn2" text-anchor="middle">Настройки</text>
<rect x="24" y="132" width="1872" height="44" rx="14" ry="14" fill="#FFFFFF" stroke="#D9DEE7" stroke-width="1" />
<rect x="40" y="140" width="133" height="28" rx="14.0" ry="14.0" fill="#FFFFFF" stroke="#D9DEE7" stroke-width="1"/>
<text x="106.5" y="158.0" class="chip" text-anchor="middle" fill="#556070">UI тестирование</text>
<rect x="183" y="140" width="147" height="28" rx="14.0" ry="14.0" fill="#FFFFFF" stroke="#D9DEE7" stroke-width="1"/>
<text x="256.5" y="158.0" class="chip" text-anchor="middle" fill="#556070">HTTP тестирование</text>
<rect x="340" y="140" width="161" height="28" rx="14.0" ry="14.0" fill="#FFFFFF" stroke="#D9DEE7" stroke-width="1"/>
<text x="420.5" y="158.0" class="chip" text-anchor="middle" fill="#556070">Сеть и безопасность</text>
<rect x="511" y="140" width="77" height="28" rx="14.0" ry="14.0" fill="#E8F0FF" stroke="#1F6FEB" stroke-width="1"/>
<text x="549.5" y="158.0" class="chip" text-anchor="middle" fill="#1F6FEB">Прогоны</text>
<rect x="24" y="192" width="1872" height="788" rx="16" ry="16" fill="#FFFFFF" stroke="#D9DEE7" stroke-width="1" />
<rect x="190.0" y="210" width="1540" height="74" rx="16" ry="16" fill="#FFFFFF" stroke="#D9DEE7" stroke-width="1" />
<text x="206.0" y="238" class="h2" text-anchor="start">Фильтры</text>
<rect x="206.0" y="246" width="180" height="32" rx="10" ry="10" fill="#FFFFFF" stroke="#D9DEE7" stroke-width="1"/>
<text x="218.0" y="266.0" class="muted" text-anchor="start">Module: Any</text>
<rect x="396.0" y="246" width="180" height="32" rx="10" ry="10" fill="#FFFFFF" stroke="#D9DEE7" stroke-width="1"/>
<text x="408.0" y="266.0" class="muted" text-anchor="start">Status: Any</text>
<rect x="586.0" y="246" width="240" height="32" rx="10" ry="10" fill="#FFFFFF" stroke="#D9DEE7" stroke-width="1"/>
<text x="598.0" y="266.0" class="muted" text-anchor="start">Дата: 11.02 — 12.02</text>
<rect x="836.0" y="246" width="260" height="32" rx="10" ry="10" fill="#FFFFFF" stroke="#D9DEE7" stroke-width="1"/>
<text x="848.0" y="266.0" class="muted" text-anchor="start">Search: RunId / URL</text>
<rect x="1594.0" y="246" width="120" height="32" rx="10" ry="10" fill="#1F6FEB" stroke="#1F6FEB" stroke-width="1"/>
<text x="1654.0" y="266.0" class="btn" text-anchor="middle">Применить</text>
<rect x="190.0" y="300" width="954" height="680" rx="16" ry="16" fill="#FFFFFF" stroke="#D9DEE7" stroke-width="1" />
<text x="206.0" y="328" class="h2" text-anchor="start">Список прогонов</text>
<text x="1128.0" y="328" class="muted" text-anchor="end">Sort: newest</text>
<rect x="206.0" y="344" width="922" height="620" rx="14" fill="#F5F7FA" stroke="#D9DEE7"/>
<text x="218.0" y="370" class="muted" text-anchor="start">Время</text>
<text x="346.0" y="370" class="muted" text-anchor="start">Модуль</text>
<text x="466.0" y="370" class="muted" text-anchor="start">Статус</text>
<text x="566.0" y="370" class="muted" text-anchor="start">URL/Target</text>
<text x="1018.0" y="370" class="muted" text-anchor="start">Длит.</text>
<line x1="214.0" y1="378" x2="1120.0" y2="378" stroke="#D9DEE7" stroke-width="1" />
<rect x="212.0" y="388" width="910" height="30" rx="10" fill="#E8F0FF" stroke="#1F6FEB" opacity="0.9"/>
<text x="218.0" y="406" class="body" text-anchor="start">12.02 00:58</text>
<text x="346.0" y="406" class="body" text-anchor="start">A1 ui.scenario</text>
<rect x="466.0" y="388" width="86" height="26" rx="13.0" ry="13.0" fill="#E7F6EC" stroke="#1A7F37" stroke-width="1"/>
<text x="509.0" y="405.0" class="chip" text-anchor="middle" fill="#1A7F37">Success</text>
<text x="566.0" y="406" class="mono" text-anchor="start">https://example.com/login</text>
<text x="1018.0" y="406" class="body" text-anchor="start">58s</text>
<text x="218.0" y="440" class="body" text-anchor="start">12.02 00:12</text>
<text x="346.0" y="440" class="body" text-anchor="start">B2 http.performance</text>
<rect x="466.0" y="422" width="70" height="26" rx="13.0" ry="13.0" fill="#FDECEF" stroke="#D73A49" stroke-width="1"/>
<text x="501.0" y="439.0" class="chip" text-anchor="middle" fill="#D73A49">Error</text>
<text x="566.0" y="440" class="mono" text-anchor="start">https://api.example.com</text>
<text x="1018.0" y="440" class="body" text-anchor="start">60s</text>
<text x="218.0" y="474" class="body" text-anchor="start">11.02 22:40</text>
<text x="346.0" y="474" class="body" text-anchor="start">C1 net.diagnostics</text>
<rect x="466.0" y="456" width="86" height="26" rx="13.0" ry="13.0" fill="#E7F6EC" stroke="#1A7F37" stroke-width="1"/>
<text x="509.0" y="473.0" class="chip" text-anchor="middle" fill="#1A7F37">Success</text>
<text x="566.0" y="474" class="mono" text-anchor="start">example.com</text>
<text x="1018.0" y="474" class="body" text-anchor="start">8s</text>
<text x="218.0" y="508" class="body" text-anchor="start">11.02 22:10</text>
<text x="346.0" y="508" class="body" text-anchor="start">B1 http.functional</text>
<rect x="466.0" y="490" width="86" height="26" rx="13.0" ry="13.0" fill="#E7F6EC" stroke="#1A7F37" stroke-width="1"/>
<text x="509.0" y="507.0" class="chip" text-anchor="middle" fill="#1A7F37">Success</text>
<text x="566.0" y="508" class="mono" text-anchor="start">https://example.com/health</text>
<text x="1018.0" y="508" class="body" text-anchor="start">3s</text>
<rect x="1160.0" y="300" width="570" height="680" rx="16" ry="16" fill="#FFFFFF" stroke="#D9DEE7" stroke-width="1" />
<text x="1176.0" y="328" class="h2" text-anchor="start">Детали прогона</text>
<text x="1714.0" y="328" class="muted" text-anchor="end">1920×1080</text>
<rect x="1176.0" y="344" width="96" height="26" rx="13.0" ry="13.0" fill="#E8F0FF" stroke="#1F6FEB" stroke-width="1"/>
<text x="1224.0" y="361.0" class="chip" text-anchor="middle" fill="#1F6FEB">A1</text>
<rect x="1280.0" y="344" width="96" height="26" rx="13.0" ry="13.0" fill="#E7F6EC" stroke="#1A7F37" stroke-width="1"/>
<text x="1328.0" y="361.0" class="chip" text-anchor="middle" fill="#1A7F37">Success</text>
<rect x="1594.0" y="340" width="120" height="32" rx="10" ry="10" fill="#FFFFFF" stroke="#D9DEE7" stroke-width="1"/>
<text x="1654.0" y="360.0" class="btn2" text-anchor="middle">Повторить</text>
<rect x="1464.0" y="340" width="120" height="32" rx="10" ry="10" fill="#FFFFFF" stroke="#D9DEE7" stroke-width="1"/>
<text x="1524.0" y="360.0" class="btn2" text-anchor="middle">Открыть папку</text>
<text x="1176.0" y="418" class="muted" text-anchor="start">RunId</text>
<rect x="1328.0" y="400" width="386" height="32" rx="10" ry="10" fill="#FFFFFF" stroke="#D9DEE7" stroke-width="1"/>
<text x="1340.0" y="420" class="mono" text-anchor="start">2026-02-12_0058_A1_xxxx</text>
<text x="1176.0" y="462" class="muted" text-anchor="start">Начало</text>
<rect x="1328.0" y="444" width="386" height="32" rx="10" ry="10" fill="#FFFFFF" stroke="#D9DEE7" stroke-width="1"/>
<text x="1340.0" y="464" class="body" text-anchor="start">12.02.2026 00:58:12</text>
<text x="1176.0" y="506" class="muted" text-anchor="start">Длительность</text>
<rect x="1328.0" y="488" width="386" height="32" rx="10" ry="10" fill="#FFFFFF" stroke="#D9DEE7" stroke-width="1"/>
<text x="1340.0" y="508" class="body" text-anchor="start">00:58</text>
<text x="1176.0" y="550" class="muted" text-anchor="start">Target</text>
<rect x="1328.0" y="532" width="386" height="32" rx="10" ry="10" fill="#FFFFFF" stroke="#D9DEE7" stroke-width="1"/>
<text x="1340.0" y="552" class="mono" text-anchor="start">https://example.com/login</text>
<text x="1176.0" y="594" class="muted" text-anchor="start">Профиль</text>
<rect x="1328.0" y="576" width="386" height="32" rx="10" ry="10" fill="#FFFFFF" stroke="#D9DEE7" stroke-width="1"/>
<text x="1340.0" y="596" class="body" text-anchor="start">Duration 60s • P=5 • Headless Off</text>
<text x="1176.0" y="630" class="muted" text-anchor="start">Артефакты</text>
<rect x="1176.0" y="642" width="538" height="322" rx="14" fill="#F5F7FA" stroke="#D9DEE7"/>
<text x="1188.0" y="672" class="mono" text-anchor="start">report.json</text>
<rect x="1624.0" y="658" width="90" height="28" rx="10" ry="10" fill="#FFFFFF" stroke="#D9DEE7" stroke-width="1"/>
<text x="1669.0" y="676.0" class="btn2" text-anchor="middle">Открыть</text>
<text x="1188.0" y="706" class="mono" text-anchor="start">report.html</text>
<rect x="1624.0" y="692" width="90" height="28" rx="10" ry="10" fill="#FFFFFF" stroke="#D9DEE7" stroke-width="1"/>
<text x="1669.0" y="710.0" class="btn2" text-anchor="middle">Открыть</text>
<text x="1188.0" y="740" class="mono" text-anchor="start">logs/run.log</text>
<rect x="1624.0" y="726" width="90" height="28" rx="10" ry="10" fill="#FFFFFF" stroke="#D9DEE7" stroke-width="1"/>
<text x="1669.0" y="744.0" class="btn2" text-anchor="middle">Открыть</text>
<text x="1188.0" y="774" class="mono" text-anchor="start">screenshots/...</text>
<rect x="24" y="996" width="1872" height="60" rx="16" ry="16" fill="#FFFFFF" stroke="#D9DEE7" stroke-width="1" />
<text x="44" y="1032" class="muted" text-anchor="start">Лог выполнения (свернут) — автоскролл • только ошибки • очистить • копировать</text>
</svg>